# xmcd
# Track frame offsets:
# 150
# 6691
# 27703
# 50027
# 71668
# 90657
# 113487
# 128975
# 145264
# 167350
# 187053
#
# Disc length: 2661 seconds
# Revision: 0
# Processed by: cddbd v1.5PL3 Copyright (c) Steve Scherf et al.
# Submitted via: VisiTrax 2.9.9.202 - For more info visit www.synapsa.com
#
DISCID=a00a630b
DTITLE=Sheba Potts-Wright - I Need A Cowboy To Ride My Pony
DYEAR=2004
DGENRE=Blues
TTITLE0=(Intro) My Name Is Sheba
TTITLE1=I Need A Cowboy to Ride My Pony
TTITLE2=I Can Give It Like A Woman
TTITLE3=Take Your Time
TTITLE4=I Need Somebody's Lovin Lovin Bad
TTITLE5=The Other Woman Has Got Your Man
TTITLE6=Get Behind Me
TTITLE7=I Can Hear Your  Macaroni
TTITLE8=The Other Woman Has Got Your Man (Remix)
TTITLE9=We're Gonna Miss You
TTITLE10=Sheba's Outro
EXTD=
EXTT0=
EXTT1=
EXTT2=
EXTT3=
EXTT4=
EXTT5=
EXTT6=
EXTT7=
EXTT8=
EXTT9=
EXTT10=
PLAYORDER=
